<!DOCTYPE svg PUBLIC "-//W3C//DTD SVG 20010904//EN" "http://www.w3.org/TR/2001/REC-SVG-20010904/DTD/svg10.dtd">
<svg version="1.0" xmlns="http://www.w3.org/2000/svg" width="620px" height="620px" viewBox="0 0 6200 6200" preserveAspectRatio="xMidYMid meet">
<g id="layer101" fill="#c8c7c6" stroke="none">
 <path d="M200 5300 l0 -700 700 0 700 0 0 700 0 700 -700 0 -700 0 0 -700z m1200 0 l0 -500 -500 0 -500 0 0 500 0 500 500 0 500 0 0 -500z"/>
 <path d="M600 5300 l0 -300 300 0 300 0 0 300 0 300 -300 0 -300 0 0 -300z"/>
 <path d="M2000 5700 l0 -300 -100 0 -100 0 0 -100 0 -100 100 0 100 0 0 -100 0 -100 100 0 100 0 0 -100 0 -100 100 0 100 0 0 200 0 200 100 0 100 0 0 -200 0 -200 200 0 200 0 0 -300 0 -300 100 0 100 0 0 -100 0 -100 -300 0 -300 0 0 100 0 100 100 0 100 0 0 100 0 100 -100 0 -100 0 0 -100 0 -100 -100 0 -100 0 0 100 0 100 -100 0 -100 0 0 100 0 100 -200 0 -200 0 0 -100 0 -100 -200 0 -200 0 0 -100 0 -100 -200 0 -200 0 0 100 0 100 -100 0 -100 0 0 -100 0 -100 100 0 100 0 0 -100 0 -100 100 0 100 0 0 -100 0 -100 -100 0 -100 0 0 -100 0 -100 -100 0 -100 0 0 200 0 200 -100 0 -100 0 0 -200 0 -200 -200 0 -200 0 0 -100 0 -100 300 0 300 0 0 -100 0 -100 -200 0 -200 0 0 -100 0 -100 -100 0 -100 0 0 -100 0 -100 100 0 100 0 0 100 0 100 200 0 200 0 0 -100 0 -100 -100 0 -100 0 0 -100 0 -100 -100 0 -100 0 0 -100 0 -100 100 0 100 0 0 -200 0 -200 100 0 100 0 0 -100 0 -100 100 0 100 0 0 100 0 100 200 0 200 0 0 -100 0 -100 100 0 100 0 0 100 0 100 -100 0 -100 0 0 100 0 100 100 0 100 0 0 100 0 100 100 0 100 0 0 -100 0 -100 100 0 100 0 0 -100 0 -100 100 0 100 0 0 200 0 200 -100 0 -100 0 0 300 0 300 300 0 300 0 0 100 0 100 200 0 200 0 0 -100 0 -100 -100 0 -100 0 0 -400 0 -400 -100 0 -100 0 0 -100 0 -100 -100 0 -100 0 0 -100 0 -100 -200 0 -200 0 0 -100 0 -100 -100 0 -100 0 0 -400 0 -400 100 0 100 0 0 -100 0 -100 -100 0 -100 0 0 -200 0 -200 100 0 100 0 0 200 0 200 100 0 100 0 0 100 0 100 -100 0 -100 0 0 200 0 200 100 0 100 0 0 100 0 100 100 0 100 0 0 -100 0 -100 100 0 100 0 0 -100 0 -100 100 0 100 0 0 -100 0 -100 -200 0 -200 0 0 -200 0 -200 -100 0 -100 0 0 -100 0 -100 300 0 300 0 0 100 0 100 -100 0 -100 0 0 100 0 100 400 0 400 0 0 -200 0 -200 300 0 300 0 0 100 0 100 100 0 100 0 0 100 0 100 100 0 100 0 0 200 0 200 -100 0 -100 0 0 -100 0 -100 -100 0 -100 0 0 200 0 200 100 0 100 0 0 100 0 100 100 0 100 0 0 100 0 100 -100 0 -100 0 0 100 0 100 100 0 100 0 0 100 0 100 -100 0 -100 0 0 200 0 200 100 0 100 0 0 -100 0 -100 200 0 200 0 0 -200 0 -200 300 0 300 0 0 100 0 100 100 0 100 0 0 -100 0 -100 200 0 200 0 0 200 0 200 -100 0 -100 0 0 200 0 200 -200 0 -200 0 0 200 0 200 -100 0 -100 0 0 -200 0 -200 100 0 100 0 0 -100 0 -100 -300 0 -300 0 0 200 0 200 100 0 100 0 0 200 0 200 100 0 100 0 0 300 0 300 -200 0 -200 0 0 -100 0 -100 -100 0 -100 0 0 200 0 200 -100 0 -100 0 0 100 0 100 300 0 300 0 0 -100 0 -100 200 0 200 0 0 -200 0 -200 100 0 100 0 0 -200 0 -200 100 0 100 0 0 -100 0 -100 -100 0 -100 0 0 -100 0 -100 100 0 100 0 0 100 0 100 100 0 100 0 0 200 0 200 -100 0 -100 0 0 100 0 100 100 0 100 0 0 500 0 500 -100 0 -100 0 0 100 0 100 -100 0 -100 0 0 100 0 100 -100 0 -100 0 0 100 0 100 100 0 100 0 0 200 0 200 100 0 100 0 0 -300 0 -300 100 0 100 0 0 300 0 300 -100 0 -100 0 0 200 0 200 -400 0 -400 0 0 -100 0 -100 -100 0 -100 0 0 -200 0 -200 -100 0 -100 0 0 -100 0 -100 -200 0 -200 0 0 -400 0 -400 -100 0 -100 0 0 100 0 100 -100 0 -100 0 0 100 0 100 100 0 100 0 0 100 0 100 -200 0 -200 0 0 100 0 100 -100 0 -100 0 0 100 0 100 100 0 100 0 0 200 0 200 -200 0 -200 0 0 -100 0 -100 -100 0 -100 0 0 100 0 100 -100 0 -100 0 0 100 0 100 -400 0 -400 0 0 -300z m600 -100 l0 -200 200 0 200 0 0 -100 0 -100 200 0 200 0 0 -100 0 -100 -300 0 -300 0 0 100 0 100 -100 0 -100 0 0 100 0 100 -100 0 -100 0 0 -100 0 -100 -100 0 -100 0 0 100 0 100 100 0 100 0 0 100 0 100 -100 0 -100 0 0 100 0 100 200 0 200 0 0 -200z m2600 100 l0 -100 -100 0 -100 0 0 100 0 100 100 0 100 0 0 -100z m400 0 l0 -100 -100 0 -100 0 0 100 0 100 100 0 100 0 0 -100z m-2200 -200 l0 -100 -100 0 -100 0 0 100 0 100 100 0 100 0 0 -100z m1600 -200 l0 -100 -100 0 -100 0 0 100 0 100 100 0 100 0 0 -100z m400 0 l0 -100 -100 0 -100 0 0 100 0 100 100 0 100 0 0 -100z m-400 -600 l0 -300 -300 0 -300 0 0 300 0 300 300 0 300 0 0 -300z m400 200 l0 -100 -100 0 -100 0 0 100 0 100 100 0 100 0 0 -100z m-1800 -200 l0 -100 -100 0 -100 0 0 -200 0 -200 100 0 100 0 0 100 0 100 100 0 100 0 0 -100 0 -100 100 0 100 0 0 -200 0 -200 -200 0 -200 0 0 100 0 100 -100 0 -100 0 0 100 0 100 -100 0 -100 0 0 300 0 300 200 0 200 0 0 -100z m2200 -300 l0 -200 -100 0 -100 0 0 -100 0 -100 -100 0 -100 0 0 100 0 100 -100 0 -100 0 0 200 0 200 300 0 300 0 0 -200z m-3600 -100 l0 -100 100 0 100 0 0 -100 0 -100 -100 0 -100 0 0 -100 0 -100 100 0 100 0 0 -100 0 -100 100 0 100 0 0 100 0 100 100 0 100 0 0 -200 0 -200 -200 0 -200 0 0 -100 0 -100 -100 0 -100 0 0 100 0 100 -100 0 -100 0 0 -200 0 -200 -100 0 -100 0 0 200 0 200 -100 0 -100 0 0 -100 0 -100 -200 0 -200 0 0 -100 0 -100 -200 0 -200 0 0 100 0 100 200 0 200 0 0 200 0 200 100 0 100 0 0 100 0 100 100 0 100 0 0 100 0 100 -100 0 -100 0 0 100 0 100 200 0 200 0 0 100 0 100 200 0 200 0 0 -100z m1000 -600 l0 -100 200 0 200 0 0 -100 0 -100 100 0 100 0 0 -200 0 -200 100 0 100 0 0 100 0 100 100 0 100 0 0 -100 0 -100 -100 0 -100 0 0 -100 0 -100 100 0 100 0 0 -100 0 -100 -200 0 -200 0 0 -100 0 -100 100 0 100 0 0 -100 0 -100 -300 0 -300 0 0 -400 0 -400 -100 0 -100 0 0 -100 0 -100 100 0 100 0 0 -100 0 -100 100 0 100 0 0 300 0 300 100 0 100 0 0 -100 0 -100 100 0 100 0 0 100 0 100 100 0 100 0 0 -100 0 -100 -100 0 -100 0 0 -100 0 -100 -100 0 -100 0 0 -200 0 -200 100 0 100 0 0 -200 0 -200 -100 0 -100 0 0 200 0 200 -100 0 -100 0 0 -100 0 -100 -100 0 -100 0 0 100 0 100 -200 0 -200 0 0 200 0 200 -200 0 -200 0 0 100 0 100 -100 0 -100 0 0 100 0 100 100 0 100 0 0 -100 0 -100 100 0 100 0 0 100 0 100 100 0 100 0 0 100 0 100 -200 0 -200 0 0 100 0 100 100 0 100 0 0 100 0 100 100 0 100 0 0 100 0 100 200 0 200 0 0 100 0 100 -200 0 -200 0 0 100 0 100 300 0 300 0 0 100 0 100 -200 0 -200 0 0 100 0 100 -100 0 -100 0 0 300 0 300 100 0 100 0 0 -100z m1200 0 l0 -100 -100 0 -100 0 0 100 0 100 100 0 100 0 0 -100z m600 -200 l0 -100 -100 0 -100 0 0 100 0 100 100 0 100 0 0 -100z m-200 -500 l0 -200 -100 0 -100 0 0 -200 0 -200 -100 0 -100 0 0 200 0 200 100 0 100 0 0 200 0 200 100 0 100 0 0 -200z m-3200 -100 l0 -100 -100 0 -100 0 0 -100 0 -100 100 0 100 0 0 -100 0 -100 -100 0 -100 0 0 100 0 100 -200 0 -200 0 0 100 0 100 200 0 200 0 0 100 0 100 100 0 100 0 0 -100z m-800 -400 l0 -100 -100 0 -100 0 0 100 0 100 100 0 100 0 0 -100z m400 -200 l0 -100 -100 0 -100 0 0 -100 0 -100 -100 0 -100 0 0 100 0 100 100 0 100 0 0 100 0 100 100 0 100 0 0 -100z m4400 0 l0 -100 100 0 100 0 0 -100 0 -100 -100 0 -100 0 0 100 0 100 -100 0 -100 0 0 -100 0 -100 -200 0 -200 0 0 100 0 100 200 0 200 0 0 100 0 100 100 0 100 0 0 -100z m-1400 -400 l0 -100 -100 0 -100 0 0 100 0 100 100 0 100 0 0 -100z m-2000 -400 l0 -100 -100 0 -100 0 0 100 0 100 100 0 100 0 0 -100z"/>
 <path d="M4600 4700 l0 -100 100 0 100 0 0 100 0 100 -100 0 -100 0 0 -100z"/>
 <path d="M5400 4300 l0 -100 100 0 100 0 0 100 0 100 -100 0 -100 0 0 -100z"/>
 <path d="M1800 3600 l0 -200 100 0 100 0 0 100 0 100 100 0 100 0 0 -100 0 -100 100 0 100 0 0 100 0 100 -100 0 -100 0 0 100 0 100 -200 0 -200 0 0 -200z"/>
 <path d="M1400 3500 l0 -100 100 0 100 0 0 100 0 100 -100 0 -100 0 0 -100z"/>
 <path d="M3400 3300 l0 -100 100 0 100 0 0 100 0 100 -100 0 -100 0 0 -100z"/>
 <path d="M3000 1500 l0 -100 100 0 100 0 0 100 0 100 -100 0 -100 0 0 -100z"/>
 <path d="M3800 5900 l0 -100 300 0 300 0 0 -100 0 -100 -300 0 -300 0 0 -100 0 -100 300 0 300 0 0 100 0 100 100 0 100 0 0 200 0 200 -400 0 -400 0 0 -100z"/>
 <path d="M200 4300 l0 -100 100 0 100 0 0 100 0 100 -100 0 -100 0 0 -100z"/>
 <path d="M200 3900 l0 -100 100 0 100 0 0 100 0 100 -100 0 -100 0 0 -100z"/>
 <path d="M2200 2700 l0 -100 100 0 100 0 0 -100 0 -100 100 0 100 0 0 200 0 200 -200 0 -200 0 0 -100z"/>
 <path d="M200 900 l0 -700 700 0 700 0 0 700 0 700 -700 0 -700 0 0 -700z m1200 0 l0 -500 -500 0 -500 0 0 500 0 500 500 0 500 0 0 -500z"/>
 <path d="M600 900 l0 -300 300 0 300 0 0 300 0 300 -300 0 -300 0 0 -300z"/>
 <path d="M4600 900 l0 -700 700 0 700 0 0 700 0 700 -700 0 -700 0 0 -700z m1200 0 l0 -500 -500 0 -500 0 0 500 0 500 500 0 500 0 0 -500z"/>
 <path d="M5000 900 l0 -300 300 0 300 0 0 300 0 300 -300 0 -300 0 0 -300z"/>
 <path d="M3000 300 l0 -100 100 0 100 0 0 100 0 100 -100 0 -100 0 0 -100z"/>
 </g>

</svg>