<svg xmlns="http://www.w3.org/2000/svg" xmlns:xlink="http://www.w3.org/1999/xlink" viewBox="0 0 994.63 283.32"><defs><style>.cls-1{fill:#b7b7b7;}.cls-2,.cls-3{fill:#e6e7e8;}.cls-2{stroke:#231f20;}.cls-2,.cls-6{stroke-linecap:round;}.cls-2,.cls-3,.cls-4,.cls-6{stroke-miterlimit:10;}.cls-3,.cls-4{stroke:#000;}.cls-4{fill:#b40027;}.cls-5{fill:#353535;}.cls-6{fill:none;stroke:#003dff;}.cls-7{fill:#232323;}.cls-8{fill:#464647;}.cls-9{fill:#191919;}.cls-10{fill:#4e5358;}.cls-11{fill:#686e75;}.cls-12{font-size:20px;}.cls-12,.cls-14,.cls-19,.cls-26,.cls-27,.cls-28{font-family:Consolas-Bold, Consolas;font-weight:700;}.cls-13{font-size:12px;}.cls-13,.cls-15,.cls-29{font-family:MyriadPro-Regular, Myriad Pro;}.cls-14{font-size:16.49px;}.cls-15{font-size:9.89px;}.cls-16{letter-spacing:-0.08em;}.cls-17{letter-spacing:-0.05em;}.cls-18{fill:#595959;}.cls-19{font-size:3.3px;}.cls-19,.cls-20{fill:#e7e6ed;}.cls-20{font-size:8.23px;font-family:Consolas, Consolas;}.cls-21{fill:#494949;}.cls-22{fill:#00c609;}.cls-23{fill:#ba00c4;}.cls-24{fill:red;}.cls-25{fill:#ffee50;}.cls-26{font-size:3px;}.cls-26,.cls-27{fill:#fff;}.cls-27{font-size:5px;}.cls-28{font-size:9.93px;}.cls-29{font-size:5.96px;letter-spacing:-0.08em;}.cls-30{letter-spacing:-0.04em;}.cls-31{letter-spacing:0em;}</style><image id="image" width="565" height="144" xlink:href="../../Untitled.png"/></defs><title>Asset 4</title><g id="Layer_2" data-name="Layer 2"><g id="Chassis_Background" data-name="Chassis Background"><polygon class="cls-1" points="609.63 56.82 609.63 81.82 565.63 81.82 565.63 84.82 531.63 84.82 531.63 83.82 398.63 83.82 398.63 84.82 239.63 84.82 239.63 35.82 296.63 35.82 296.63 16.82 508.63 16.82 508.63 26.82 536.63 26.82 536.63 31.82 545.63 31.82 545.63 39.82 565.63 39.82 565.63 43.82 582.63 43.82 582.63 56.82 609.63 56.82"/></g><g id="Chassis"><path class="cls-2" d="M234.28,122.32l-2.15-.95Z"/><path class="cls-2" d="M111.13,177.72l-.85,3.1-.69,2.5c.2-.84.41-1.67.64-2.5C110.51,179.78,110.81,178.74,111.13,177.72Z"/><path class="cls-2" d="M282.65,13.41l-32,7.92h-.47C260.52,18.5,271.38,15.83,282.65,13.41Z"/><path class="cls-2" d="M287.17,12.46c-1.51.3-3,.62-4.52.95l4.48-1.11Z"/><path class="cls-2" d="M802.13,82.32v.15q-.86-.09-1.71-.15Z"/><path class="cls-3" d="M111.13,177.72l-.85,3.1-.69,2.5c.2-.84.41-1.67.64-2.5C110.51,179.78,110.81,178.74,111.13,177.72Z"/><path class="cls-4" d="M993.66,143.5a382.68,382.68,0,0,0-57.53-29.43q-11.08-4.56-23.31-8.75c-31-10.59-67.69-19-110.69-22.85q-.86-.09-1.71-.15a593.13,593.13,0,0,0-61.29-2h0l-62-.62L615.63,52.06l-4-1.8L565.06,29.32h.07l-.32-.11-1.68-.76v-.13h-.78c-.73-.27-1.48-.53-2.22-.79v-.21h-.59q-13.77-4.84-28.41-9a472.26,472.26,0,0,0-74.5-14.63l-4-.44A504,504,0,0,0,382,.82l-2.37.09a566.52,566.52,0,0,0-92.46,11.55c-1.51.3-3,.62-4.52.95l-32.41,8,.8,3.25a1,1,0,0,1-.73,1.21l-23.68,5.85-4,1-68,16.81-4,1L95.14,64.24,30.75,77a1,1,0,0,0-.81,1,1.11,1.11,0,0,0,0,.19,1,1,0,0,1-1,1.2H26.81a1,1,0,0,1-.83-.44l-5.52-8.12a1,1,0,0,0-.83-.44h-6a1,1,0,0,0-.55.17l-.84.58,4.54,6.68a1,1,0,0,1-.82,1.57H8.5a1,1,0,0,0-.68.26l-3,2.76a1,1,0,0,0-.07,1.42l4.14,4.53a1,1,0,0,1,.26.68v13.49A1.06,1.06,0,0,1,9,103l-1.68,2.91-.18.37L10,118.84a1.06,1.06,0,0,1,0,.5L1.31,148.82l0,.14A1,1,0,0,0,2,150.21l7,2.08a1,1,0,0,1,.62.53,1.05,1.05,0,0,1,.09.61L8,162.82l-.7,4-2.44,14-.69,4-.65,3.71a1,1,0,0,1-.45.68L1,190.56A1,1,0,0,0,.66,192L31.42,240.7l31.21,4.16,4,.53,40,5.33a1,1,0,0,0,1.14-1L107.13,209v-.23c-.06-1.37-.09-2.75-.09-4.13,0-.34,0-.69,0-1q0-3.42.33-6.78c.1-1.34.25-2.68.43-4q.51-4.06,1.4-8c.09-.44.19-.88.29-1.31.21-.9.44-1.8.68-2.69s.56-2,.86-2.94c.52-1.71,1.09-3.39,1.72-5.06.41-1.14.85-2.26,1.32-3.38l.27-.62c.22-.52.45-1,.68-1.54,1-2.2,2.06-4.35,3.23-6.45a0,0,0,0,1,0,0c.44-.82.9-1.62,1.39-2.44.31-.52.62-1,.94-1.56.46-.75.94-1.49,1.42-2.22q2-3,4.17-5.78,1.59-2.06,3.3-4a89.36,89.36,0,0,1,7.93-8c1.56-1.39,3.17-2.73,4.83-4,.69-.54,1.39-1.07,2.1-1.58q1.32-1,2.67-1.86a88.24,88.24,0,0,1,12.82-7.18c1-.48,2.08-.94,3.14-1.37a87.85,87.85,0,0,1,10.66-3.6c1.32-.36,2.65-.69,4-1a89.71,89.71,0,0,1,17-2.06q1.16,0,2.31,0l1.69,0a89.13,89.13,0,0,1,33.27,7.06c.72.31,1.44.64,2.15,1a89.17,89.17,0,0,1,15.83,9.3c.59.43,1.18.87,1.75,1.32,1,.78,2,1.6,3,2.44.6.51,1.2,1,1.79,1.56a87,87,0,0,1,7.95,8l1.28,1.5h.45v.22c.63.75,1.25,1.51,1.85,2.28a86.87,86.87,0,0,1,5.6,8c.54.85,1.05,1.7,1.55,2.57l.81,1.43q1.72,3.09,3.19,6.35c.25.55.49,1.09.72,1.65.57,1.31,1.11,2.65,1.61,4q1.47,3.92,2.57,8c.36,1.32.69,2.65,1,4,.58,2.63,1.05,5.29,1.39,8,.17,1.33.31,2.66.42,4q.31,3.72.31,7.5v48a1,1,0,0,0,1,1h451a1,1,0,0,0,1-1v-46s.59-11,1.48-16a87.62,87.62,0,0,1,172-2.5c.27,1.32.52,2.66.73,4q.63,3.94.9,8c.09,1.32.15,2.66.17,4,0,.63,0,1.26,0,1.9,0,2.56-.33,47.32-.33,47.32.18.29,9.47-.61,21.5-1.9l4-.44,8-.88,4-.45,8-.91,4-.47c14.71-1.69,27-3.15,27-3.15a1,1,0,0,0,.86-1.12l-1.38-10.85A1,1,0,0,0,990,232l-11.71,1.49a1,1,0,0,1-1.13-1v-6.38a1,1,0,0,1,.09-.41l9.83-21.88,1.8-4,3.07-6.83a3.87,3.87,0,0,0,.19-1.17c0-.58,0-1.2,0-1.5v-22a1,1,0,0,0-1-1H989.6a1,1,0,0,1-.84-1.55l5.35-8.19,0-.26v-13A1,1,0,0,0,993.66,143.5ZM242.13,53.32c27.73-16.64,62.83-17.8,94.42-23.61l25,48.61C340.41,78.32,259,64.35,242.13,53.32ZM377,78.32a21.17,21.17,0,0,1-7.35-6.3,54.77,54.77,0,0,1-4-5.85c-7.21-12-13-29.24-17.71-38.39q8.71-1.23,17.71-2.38l4-.49c12.76-1.55,25.85-2.86,39-3.65,1.33-.08,2.67-.16,4-.22a373.34,373.34,0,0,1,40-.1c1.34.07,2.67.15,4,.25a240.46,240.46,0,0,1,32.76,4.38c33.14,6.91,94.21,22.86,113.74,52.75Z"/><path class="cls-3" d="M234.28,122.32l-2.15-.95Z"/><path class="cls-3" d="M111.13,177.72l-.85,3.1-.69,2.5c.2-.84.41-1.67.64-2.5C110.51,179.78,110.81,178.74,111.13,177.72Z"/><path class="cls-3" d="M115.13,167.17l-.95,2.15C114.49,168.6,114.81,167.88,115.13,167.17Z"/><path class="cls-3" d="M115.13,167.17l-.95,2.15C114.49,168.6,114.81,167.88,115.13,167.17Z"/><path class="cls-3" d="M232.13,121.37l2.15.95Z"/><path class="cls-5" d="M196.13,163.82a40.5,40.5,0,1,0,40.5,40.5A40.5,40.5,0,0,0,196.13,163.82Zm0,66.5a26,26,0,1,1,26-26A26,26,0,0,1,196.13,230.32Z"/><path class="cls-6" d="M203.84,204.07A7.75,7.75,0,0,1,189,207.25h0a7.83,7.83,0,0,1-.66-2.65c0-.18,0-.36,0-.53a8,8,0,0,1,.1-1.22c0-.14,0-.27.07-.4s.13-.54.21-.79l.15-.4a5.63,5.63,0,0,1,.36-.79c.07-.14.14-.27.22-.4a7.4,7.4,0,0,1,.55-.79l.33-.4a8.82,8.82,0,0,1,.83-.79l.52-.4a8.24,8.24,0,0,1,1.46-.79,8,8,0,0,1,1.26-.4,8,8,0,0,1,3.38,0,7.4,7.4,0,0,1,1.26.4,7.6,7.6,0,0,1,1.46.79c.18.13.36.26.52.4a6.91,6.91,0,0,1,.83.79c.12.13.23.26.34.4a7.33,7.33,0,0,1,.54.79c.08.13.16.26.23.4s.25.52.36.79.1.26.14.4a6.53,6.53,0,0,1,.21.79c0,.13.06.26.08.4A8,8,0,0,1,203.84,204.07Z"/><path class="cls-7" d="M239.17,190a22,22,0,0,1,1,5.85v14.92a21.89,21.89,0,0,1-1,5.84l-5.85,12.21a6.14,6.14,0,0,1-4.5,2.49,3.9,3.9,0,0,1-3.52-2.92l-1.64-6.81a12.21,12.21,0,0,1,.26-5.76,44.86,44.86,0,0,0,2.21-12v-.17c0-.19,0-.48,0-.66v-.17a45,45,0,0,0-2.21-12,12.21,12.21,0,0,1-.26-5.76l1.64-6.81a3.89,3.89,0,0,1,3.52-2.91,6.13,6.13,0,0,1,4.5,2.48Z"/><path class="cls-8" d="M189.63,229.82l1-.36c.57-.2,1.86-.71,2.88-1.13l9.55-4a3.57,3.57,0,0,1,3.16.2,11.11,11.11,0,0,1,2.34,2.69l5.4,9A9.29,9.29,0,0,1,215.1,240l1.05,26.62a1.36,1.36,0,0,0,1.95,1.29l.26-.1a3.21,3.21,0,0,0,1.92-2.7l.72-25.52a4,4,0,0,1,1.33-2.88,2.56,2.56,0,0,1,2.83.37l14.46,11.72a5.23,5.23,0,0,0,3.53,1l.63-.1a1.53,1.53,0,0,0,1.27-2.15l-.1-.24a12.11,12.11,0,0,0-2.08-3.33l-12.27-13.1c-.76-.8-2-2.12-2.73-2.93L220,219.31a5.76,5.76,0,0,1-1.36-3.28c0-1-.07-2.71-.16-3.81l-.82-10.75a3.53,3.53,0,0,1,1.19-2.92,11,11,0,0,1,3.3-1.37l10.31-2.25a9.4,9.4,0,0,1,3.88.13l25.73,7.41a1.35,1.35,0,0,0,1.84-1.44v-.26a3.24,3.24,0,0,0-2-2.68l-24.12-8.73a4.05,4.05,0,0,1-2.32-2.17,2.53,2.53,0,0,1,1.25-2.55l15.74-9.95a5.26,5.26,0,0,0,2-3l.11-.61a1.54,1.54,0,0,0-1.65-1.88h-.28a12.54,12.54,0,0,0-3.82.91l-16.37,7.46c-1,.46-2.64,1.2-3.64,1.64l-10.68,4.75c-1,.45-1.74.76-1.63.7l-.84.41a5.58,5.58,0,0,1-3,.1l-10.61-2.26a3.57,3.57,0,0,1-2.48-2,11,11,0,0,1-.37-3.54l.75-10.46a9.42,9.42,0,0,1,1.22-3.68l14.44-22.44a1.35,1.35,0,0,0-.86-2.17l-.27-.07a3.26,3.26,0,0,0-3.13,1.13l-15.25,20.53a4.1,4.1,0,0,1-2.75,1.61,2.55,2.55,0,0,1-2.11-1.93l-5.12-17.83a5.19,5.19,0,0,0-2.34-2.81l-.57-.29a1.54,1.54,0,0,0-2.28,1l-.06.25a12.3,12.3,0,0,0-.21,3.92l2.55,17.72c.16,1.09.4,2.87.55,4l1.54,11.52c.15,1.09.27,2.22.27,2.5s0,.46-.08.38a6.48,6.48,0,0,0-1.1,1.58l-5.55,9.26a3.61,3.61,0,0,1-2.67,1.71,11.33,11.33,0,0,1-3.48-.78L163,188a9.45,9.45,0,0,1-3.1-2.33l-16.73-20.81a1.36,1.36,0,0,0-2.34.13l-.14.22a3.22,3.22,0,0,0,.06,3.32l14.65,20.95a4.06,4.06,0,0,1,.65,3.11,2.56,2.56,0,0,1-2.5,1.37L134.92,193a5.14,5.14,0,0,0-3.42,1.31l-.45.44a1.53,1.53,0,0,0,.26,2.48l.23.14a12.12,12.12,0,0,0,3.65,1.45l17.71,3.29c1.08.2,2.84.53,3.92.75l11.48,2.24a5.16,5.16,0,0,0,1.87.21c-.06-.09.13.07.41.35a2.83,2.83,0,0,0,.64.52,13.55,13.55,0,0,1,1.34,1.6l6.56,8.59a3.55,3.55,0,0,1,.6,3.1,11.19,11.19,0,0,1-2,2.93l-7.42,7.45a9.36,9.36,0,0,1-3.33,2l-25.66,7.67a1.35,1.35,0,0,0-.76,2.21l.16.21a3.25,3.25,0,0,0,3.11,1.19l25-5.69a4.06,4.06,0,0,1,3.13.56,2.55,2.55,0,0,1,.34,2.83l-7.79,16.85a5.18,5.18,0,0,0-.06,3.66l.24.57a1.55,1.55,0,0,0,2.41.69l.22-.16a12.39,12.39,0,0,0,2.72-2.83l9.67-15.1c.59-.93,1.59-2.43,2.21-3.34l7.74-11.37"/><path class="cls-9" d="M274.77,191.59c-.22-1.36-.46-2.72-.75-4.06a76.88,76.88,0,0,0-2.18-8.11c-.45-1.36-.92-2.71-1.44-4a79.27,79.27,0,0,0-3.7-8.11q-1.08-2.07-2.28-4a81.17,81.17,0,0,0-5.61-8.11q-1.63-2.08-3.42-4.06a81,81,0,0,0-8.46-8.11c-1.72-1.43-3.51-2.77-5.36-4.05a79.38,79.38,0,0,0-62.37-12.16,77.77,77.77,0,0,0-12.88,4.05,78.81,78.81,0,0,0-14.89,8.11c-1.85,1.28-3.63,2.62-5.36,4.05a79.08,79.08,0,0,0-8.46,8.11q-1.79,2-3.42,4.06a81.17,81.17,0,0,0-5.61,8.11q-1.2,2-2.28,4a79.27,79.27,0,0,0-3.7,8.11c-.52,1.34-1,2.69-1.44,4a76.88,76.88,0,0,0-2.18,8.11c-.29,1.34-.53,2.7-.75,4.06a78.89,78.89,0,0,0-1,12.47c0,1.84.06,3.67.19,5.48a78.62,78.62,0,0,0,6.78,27.07h0a79.27,79.27,0,0,0,150.55-45ZM196.4,269.82a65.76,65.76,0,0,1-60-38.74h0a65,65,0,0,1-5.62-22.46c-.11-1.5-.16-3-.16-4.54a65.54,65.54,0,0,1,.81-10.36c.18-1.12.38-2.25.62-3.36a63.5,63.5,0,0,1,1.81-6.73q.56-1.69,1.2-3.36a63.93,63.93,0,0,1,3.07-6.73q.89-1.71,1.89-3.36a66.48,66.48,0,0,1,4.65-6.73c.91-1.15,1.85-2.27,2.84-3.36a64.6,64.6,0,0,1,7-6.73q2.16-1.78,4.45-3.37a65.6,65.6,0,0,1,12.36-6.72,64.21,64.21,0,0,1,10.69-3.37,66.32,66.32,0,0,1,28.69,0,64.51,64.51,0,0,1,10.69,3.37A65.29,65.29,0,0,1,233.8,150c1.53,1.06,3,2.18,4.45,3.37a65.53,65.53,0,0,1,7,6.73q1.49,1.63,2.84,3.36a64.9,64.9,0,0,1,4.65,6.73c.67,1.1,1.3,2.22,1.9,3.36a66,66,0,0,1,3.07,6.73c.42,1.11.82,2.23,1.19,3.36a63.5,63.5,0,0,1,1.81,6.73c.24,1.11.44,2.24.62,3.36a65.76,65.76,0,0,1-64.94,76.11Z"/><path class="cls-5" d="M827.13,163.82a40.5,40.5,0,1,0,40.5,40.5A40.5,40.5,0,0,0,827.13,163.82Zm0,66.5a26,26,0,1,1,26-26A26,26,0,0,1,827.13,230.32Z"/><path class="cls-6" d="M834.84,204.07A7.75,7.75,0,0,1,820,207.25h0a7.83,7.83,0,0,1-.66-2.65c0-.18,0-.36,0-.53a8,8,0,0,1,.1-1.22c0-.14,0-.27.07-.4s.13-.54.21-.79l.15-.4a5.63,5.63,0,0,1,.36-.79c.07-.14.14-.27.22-.4a7.4,7.4,0,0,1,.55-.79l.33-.4a8.82,8.82,0,0,1,.83-.79l.52-.4a8.24,8.24,0,0,1,1.46-.79,8,8,0,0,1,1.26-.4,8,8,0,0,1,3.38,0,7.4,7.4,0,0,1,1.26.4,7.6,7.6,0,0,1,1.46.79c.18.13.36.26.52.4a6.91,6.91,0,0,1,.83.79c.12.13.23.26.34.4a7.33,7.33,0,0,1,.54.79c.08.13.16.26.23.4s.25.52.36.79.1.26.14.4a6.53,6.53,0,0,1,.21.79c0,.13.06.26.08.4A8,8,0,0,1,834.84,204.07Z"/><path class="cls-7" d="M783.59,218.12a21.89,21.89,0,0,1-1-5.84V197.36a22,22,0,0,1,1-5.85l5.85-12.21a6.11,6.11,0,0,1,4.49-2.48,3.89,3.89,0,0,1,3.52,2.91l1.64,6.81a12.21,12.21,0,0,1-.25,5.76,45,45,0,0,0-2.21,12v1a44.86,44.86,0,0,0,2.21,12,12.21,12.21,0,0,1,.25,5.76l-1.64,6.81a3.9,3.9,0,0,1-3.52,2.92,6.12,6.12,0,0,1-4.49-2.49Z"/><path class="cls-8" d="M805.53,219.36l1,.37c.56.21,1.89.63,2.94.94l9.93,2.93a3.59,3.59,0,0,1,2.33,2.15,11.26,11.26,0,0,1,.12,3.56l-1.5,10.4a9.28,9.28,0,0,1-1.48,3.59l-16,21.32a1.36,1.36,0,0,0,.7,2.23l.26.09a3.25,3.25,0,0,0,3.21-.89l16.64-19.35a4,4,0,0,1,2.85-1.4,2.56,2.56,0,0,1,2,2.07l3.83,18.22a5.2,5.2,0,0,0,2.13,3l.55.33a1.53,1.53,0,0,0,2.34-.88l.08-.24a12.25,12.25,0,0,0,.48-3.9L836.69,246c-.08-1.1-.19-2.9-.26-4l-.72-11.64a5.68,5.68,0,0,1,1-3.41c.62-.77,1.65-2.15,2.27-3.05l6.14-8.86a3.58,3.58,0,0,1,2.77-1.53,11,11,0,0,1,3.42,1l9.43,4.75a9.28,9.28,0,0,1,2.92,2.55l15.3,22a1.36,1.36,0,0,0,2.34,0l.15-.21a3.24,3.24,0,0,0,.17-3.32l-13.22-22a4.06,4.06,0,0,1-.43-3.15,2.54,2.54,0,0,1,2.58-1.19l18.49,2.21a5.19,5.19,0,0,0,3.5-1.07l.47-.4a1.54,1.54,0,0,0-.09-2.5l-.22-.17a12.3,12.3,0,0,0-3.54-1.7l-17.41-4.53-3.87-1-11.28-3.05c-1.06-.29-1.83-.5-1.7-.48l-.91-.21a5.65,5.65,0,0,1-2.39-1.81l-6.81-8.45a3.58,3.58,0,0,1-.68-3.08,11.12,11.12,0,0,1,1.94-3l7.19-7.65a9.36,9.36,0,0,1,3.27-2.08l25.35-8.31a1.35,1.35,0,0,0,.7-2.23l-.17-.22a3.25,3.25,0,0,0-3.14-1.1l-24.78,6.32a4.08,4.08,0,0,1-3.15-.49,2.56,2.56,0,0,1-.42-2.82l7.27-17.07a5.24,5.24,0,0,0,0-3.66l-.27-.58a1.54,1.54,0,0,0-2.43-.62l-.2.15a12.14,12.14,0,0,0-2.63,2.91l-9.2,15.36-2.07,3.42L835.28,176c-.57.94-1.19,1.88-1.37,2.1s-.31.34-.29.25a6.06,6.06,0,0,0-1.85.53l-10.15,3.69a3.59,3.59,0,0,1-3.15-.36,11,11,0,0,1-2.21-2.8l-5-9.3a9.44,9.44,0,0,1-.94-3.76l.13-26.7a1.36,1.36,0,0,0-1.89-1.38l-.25.08a3.22,3.22,0,0,0-2.05,2.61l-1.84,25.51a4,4,0,0,1-1.46,2.82,2.56,2.56,0,0,1-2.8-.51l-13.9-12.45a5.29,5.29,0,0,0-3.48-1.14l-.63.06a1.53,1.53,0,0,0-1.36,2.09l.09.26a12.27,12.27,0,0,0,1.92,3.42l11.66,13.72c.72.83,1.88,2.21,2.58,3.06l7.5,9c.7.85,1.29,1.45,1.31,1.35s.06.13.1.53a2.89,2.89,0,0,0,.17.81,13,13,0,0,1,0,2.08l-.32,10.8a3.57,3.57,0,0,1-1.5,2.78,11.14,11.14,0,0,1-3.42,1l-10.47,1.1a9.48,9.48,0,0,1-3.84-.55l-24.75-10.23a1.34,1.34,0,0,0-2,1.23l0,.26a3.27,3.27,0,0,0,1.67,2.89l23,11.36a4.07,4.07,0,0,1,2.07,2.41A2.54,2.54,0,0,1,785.1,217l-16.67,8.16a5.24,5.24,0,0,0-2.36,2.8l-.17.6a1.55,1.55,0,0,0,1.44,2.06h.27a12.15,12.15,0,0,0,3.89-.48l17-5.62c1.05-.34,2.76-.88,3.82-1.2l13.18-3.95"/><path class="cls-9" d="M905.77,191.59c-.22-1.36-.46-2.72-.75-4.06a76.88,76.88,0,0,0-2.18-8.11c-.45-1.36-.92-2.71-1.44-4a79.27,79.27,0,0,0-3.7-8.11q-1.08-2.07-2.28-4a81.17,81.17,0,0,0-5.61-8.11q-1.63-2.08-3.42-4.06a81,81,0,0,0-8.46-8.11c-1.72-1.43-3.51-2.77-5.36-4.05a79.38,79.38,0,0,0-62.37-12.16,77.77,77.77,0,0,0-12.88,4.05,78.81,78.81,0,0,0-14.89,8.11c-1.85,1.28-3.63,2.62-5.36,4.05a79.08,79.08,0,0,0-8.46,8.11q-1.79,2-3.42,4.06a81.17,81.17,0,0,0-5.61,8.11q-1.2,2-2.28,4a79.27,79.27,0,0,0-3.7,8.11c-.52,1.34-1,2.69-1.44,4a76.88,76.88,0,0,0-2.18,8.11c-.29,1.34-.53,2.7-.75,4.06a78.89,78.89,0,0,0-1,12.47c0,1.84.06,3.67.19,5.48a78.62,78.62,0,0,0,6.78,27.07h0a79.27,79.27,0,0,0,150.55-45ZM827.4,269.82a65.76,65.76,0,0,1-60-38.74h0a65,65,0,0,1-5.62-22.46c-.11-1.5-.16-3-.16-4.54a65.54,65.54,0,0,1,.81-10.36c.18-1.12.38-2.25.62-3.36a63.5,63.5,0,0,1,1.81-6.73q.55-1.69,1.2-3.36a63.93,63.93,0,0,1,3.07-6.73q.89-1.71,1.89-3.36a66.48,66.48,0,0,1,4.65-6.73c.91-1.15,1.85-2.27,2.84-3.36a64.6,64.6,0,0,1,7-6.73q2.16-1.78,4.45-3.37a65.6,65.6,0,0,1,12.36-6.72,64.21,64.21,0,0,1,10.69-3.37,66.32,66.32,0,0,1,28.69,0,64.51,64.51,0,0,1,10.69,3.37A65.29,65.29,0,0,1,864.8,150c1.53,1.06,3,2.18,4.45,3.37a65.53,65.53,0,0,1,7,6.73q1.49,1.63,2.84,3.36a64.9,64.9,0,0,1,4.65,6.73c.67,1.1,1.3,2.22,1.9,3.36a66,66,0,0,1,3.07,6.73c.42,1.11.82,2.23,1.19,3.36a63.5,63.5,0,0,1,1.81,6.73c.24,1.11.44,2.24.62,3.36a65.76,65.76,0,0,1-64.94,76.11Z"/></g><g id="PCB"><path d="M940.63,218.82V250.7l-4,.44V218.82Z"/><rect x="936.63" y="156.82" width="4" height="21"/><rect x="914.63" y="131.82" width="4" height="25"/><rect x="944.63" y="131.82" width="4" height="18"/><rect x="960.63" y="149.82" width="4" height="23"/><rect x="948.63" y="163.82" width="4" height="13"/><rect x="952.63" y="125.82" width="4" height="34"/><rect x="962.63" y="140.82" width="4" height="8"/><rect x="980.63" y="149.82" width="4" height="8"/><rect x="971.63" y="134.82" width="4" height="11"/><path d="M952.63,218.82v30.55l-4,.45v-31Z"/><path d="M964.63,218.82V248l-4,.47V218.82Z"/><polygon points="988.85 199.82 987.05 203.82 915.43 203.82 915.26 199.82 988.85 199.82"/><path d="M992.11,191.82H914.36c-.21-1.34-.46-2.68-.73-4h78.5v2.5C992.13,190.62,992.14,191.24,992.11,191.82Z"/><rect x="953.63" y="136.82" width="4" height="22" transform="translate(1103.44 -807.81) rotate(90)"/><rect x="950.63" y="125.82" width="4" height="4" transform="translate(1080.44 -824.81) rotate(90)"/><rect x="972.63" y="142.82" width="4" height="6" transform="translate(1120.44 -828.81) rotate(90)"/><rect x="950.63" y="157.82" width="4" height="8" transform="translate(1114.44 -790.81) rotate(90)"/><rect x="926.63" y="142.82" width="4" height="24" transform="translate(1083.44 -773.81) rotate(90)"/><rect x="962.63" y="127.82" width="4" height="18" transform="translate(1101.44 -827.81) rotate(90)"/><rect x="971.63" y="147.82" width="4" height="22" transform="translate(1132.44 -814.81) rotate(90)"/><rect x="735.63" y="80.82" width="4" height="46" transform="translate(841.44 -633.81) rotate(90)"/><rect x="34.63" y="113.82" width="10" height="4"/><rect x="29.63" y="101.82" width="16" height="4"/><rect x="37.63" y="78.82" width="27" height="4"/><rect x="74.63" y="71.82" width="80" height="4"/><rect x="107.63" y="101.82" width="70" height="4"/><rect x="86.63" y="79.82" width="110" height="4"/><rect x="14.63" y="84.82" width="27" height="4"/><rect x="14.63" y="113.82" width="10" height="4"/><rect x="0.63" y="99.82" width="32" height="4" transform="translate(118.44 85.19) rotate(90)"/><rect x="56.13" y="85.32" width="17" height="4" transform="translate(151.94 22.69) rotate(90)"/><rect x="68.13" y="82.32" width="17" height="4" transform="translate(160.94 7.69) rotate(90)"/><rect x="80.13" y="89.32" width="17" height="4" transform="translate(179.94 2.69) rotate(90)"/><rect x="36.63" y="79.82" width="6" height="4" transform="translate(121.44 42.19) rotate(90)"/><rect x="11.13" y="118.32" width="37" height="4" transform="translate(149.94 90.69) rotate(90)"/><rect class="cls-10" x="355.63" y="131.82" width="15" height="6"/><rect class="cls-10" x="355.63" y="143.82" width="15" height="6"/><rect class="cls-10" x="355.63" y="155.82" width="15" height="6"/><rect class="cls-10" x="355.63" y="167.82" width="15" height="6"/><rect class="cls-10" x="355.63" y="179.82" width="15" height="6"/><rect class="cls-10" x="355.63" y="191.82" width="15" height="6"/><rect class="cls-10" x="441.63" y="131.82" width="15" height="6"/><rect class="cls-10" x="441.63" y="143.82" width="15" height="6"/><rect class="cls-10" x="441.63" y="155.82" width="15" height="6"/><rect class="cls-10" x="441.63" y="167.82" width="15" height="6"/><rect class="cls-10" x="441.63" y="179.82" width="15" height="6"/><rect class="cls-10" x="441.63" y="191.82" width="15" height="6"/><rect class="cls-10" x="429.13" y="119.32" width="15" height="6" transform="translate(558.94 -314.31) rotate(90)"/><rect class="cls-10" x="417.13" y="119.32" width="15" height="6" transform="translate(546.94 -302.31) rotate(90)"/><rect class="cls-10" x="405.13" y="119.32" width="15" height="6" transform="translate(534.94 -290.31) rotate(90)"/><rect class="cls-10" x="393.13" y="119.32" width="15" height="6" transform="translate(522.94 -278.31) rotate(90)"/><rect class="cls-10" x="381.13" y="119.32" width="15" height="6" transform="translate(510.94 -266.31) rotate(90)"/><rect class="cls-10" x="369.13" y="119.32" width="15" height="6" transform="translate(498.94 -254.31) rotate(90)"/><rect class="cls-10" x="429.13" y="205.32" width="15" height="6" transform="translate(644.94 -228.31) rotate(90)"/><rect class="cls-10" x="417.13" y="205.32" width="15" height="6" transform="translate(632.94 -216.31) rotate(90)"/><rect class="cls-10" x="405.13" y="205.32" width="15" height="6" transform="translate(620.94 -204.31) rotate(90)"/><rect class="cls-10" x="393.13" y="205.32" width="15" height="6" transform="translate(608.94 -192.31) rotate(90)"/><rect class="cls-10" x="381.13" y="205.32" width="15" height="6" transform="translate(596.94 -180.31) rotate(90)"/><rect class="cls-10" x="369.13" y="205.32" width="15" height="6" transform="translate(584.94 -168.31) rotate(90)"/><rect class="cls-11" x="362.63" y="121.82" width="87" height="87" rx="8.17" ry="8.17"/><rect class="cls-10" x="642.63" y="179.82" width="15" height="6"/><rect class="cls-10" x="642.63" y="191.82" width="15" height="6"/><rect class="cls-10" x="642.63" y="203.82" width="15" height="6"/><rect class="cls-10" x="642.63" y="215.82" width="15" height="6"/><rect class="cls-10" x="705.63" y="179.82" width="15" height="6"/><rect class="cls-10" x="705.63" y="191.82" width="15" height="6"/><rect class="cls-10" x="705.63" y="203.82" width="15" height="6"/><rect class="cls-10" x="705.63" y="215.82" width="15" height="6"/><rect class="cls-10" x="692.13" y="166.32" width="15" height="6" transform="translate(868.94 -530.31) rotate(90)"/><rect class="cls-10" x="680.13" y="166.32" width="15" height="6" transform="translate(856.94 -518.31) rotate(90)"/><rect class="cls-10" x="668.13" y="166.32" width="15" height="6" transform="translate(844.94 -506.31) rotate(90)"/><rect class="cls-10" x="656.13" y="166.32" width="15" height="6" transform="translate(832.94 -494.31) rotate(90)"/><rect class="cls-10" x="692.13" y="229.32" width="15" height="6" transform="translate(931.94 -467.31) rotate(90)"/><rect class="cls-10" x="680.13" y="229.32" width="15" height="6" transform="translate(919.94 -455.31) rotate(90)"/><rect class="cls-10" x="668.13" y="229.32" width="15" height="6" transform="translate(907.94 -443.31) rotate(90)"/><rect class="cls-10" x="656.13" y="229.32" width="15" height="6" transform="translate(895.94 -431.31) rotate(90)"/><rect class="cls-11" x="649.63" y="168.82" width="64" height="64" rx="8.17" ry="8.17"/><text class="cls-12" transform="translate(397.29 162.65)">Lucy</text><text class="cls-13" transform="translate(388.96 179.82)">427500GG</text><rect x="456.63" y="132.82" width="28" height="4"/><rect x="480.63" y="112.82" width="12" height="4"/><rect x="499.63" y="112.82" width="12" height="4"/><rect x="515.63" y="112.82" width="12" height="4"/><rect x="434.63" y="101.82" width="283" height="4"/><rect x="422.63" y="91.82" width="189" height="4"/><rect x="410.63" y="79.82" width="46" height="4"/><path d="M456.63,3.69v17.5c-1.33-.1-2.66-.18-4-.25V3.25Z"/><rect x="452.63" y="78.32" width="4" height="5.5"/><rect x="365.63" y="80.82" width="25" height="4"/><rect x="365.63" y="9.82" width="18" height="4"/><rect x="226.63" y="89.82" width="152" height="4"/><path d="M142.24,132.82c-1.66,1.27-3.27,2.61-4.83,4H126.63v-4Z"/><path d="M355.63,132.82v4H256.45c-.59-.53-1.19-1-1.79-1.56-1-.84-2-1.66-3-2.44Z"/><rect x="365.63" y="224.82" width="22" height="4" transform="translate(603.44 -149.81) rotate(90)"/><rect x="312.63" y="225.82" width="18" height="4" transform="translate(549.44 -93.81) rotate(90)"/><rect x="456.63" y="144.82" width="21" height="4"/><rect x="456.63" y="156.82" width="41" height="4"/><rect x="495.63" y="125.82" width="89" height="4"/><rect x="456.63" y="168.82" width="75" height="4"/><rect x="530.63" y="172.82" width="49" height="4"/><rect x="546.63" y="192.82" width="21" height="4"/><rect x="577.63" y="204.82" width="7" height="4"/><rect x="625.63" y="181.82" width="6" height="4" transform="translate(812.44 -444.81) rotate(90)"/><rect x="539.63" y="158.82" width="30" height="4"/><rect x="562.63" y="159.82" width="10" height="4" transform="translate(729.44 -405.81) rotate(90)"/><rect x="534.13" y="168.32" width="15" height="4" transform="translate(711.94 -371.31) rotate(90)"/><rect x="562.63" y="183.82" width="10" height="4" transform="translate(753.44 -381.81) rotate(90)"/><rect x="533.13" y="186.32" width="17" height="4" transform="translate(729.94 -353.31) rotate(90)"/><rect x="528.63" y="170.82" width="8" height="4" transform="translate(705.44 -359.81) rotate(90)"/><rect x="508.63" y="196.82" width="36" height="4" transform="translate(725.44 -327.81) rotate(90)"/><rect x="561.63" y="203.82" width="12" height="4" transform="translate(773.44 -361.81) rotate(90)"/><rect x="562.13" y="188.32" width="35" height="4" transform="translate(769.94 -389.31) rotate(90)"/><rect x="456.63" y="192.82" width="92" height="4"/><rect x="456.63" y="180.82" width="70" height="4" transform="translate(983.26 365.63) rotate(180)"/><rect x="456.63" y="192.82" width="21" height="4"/><path d="M129.48,144.82q-1.71,2-3.3,4H111.63v-4Z"/><path d="M355.63,144.82v4H268c-.6-.77-1.22-1.53-1.85-2.28v-.22h-.45l-1.28-1.5Z"/><path d="M120.59,156.82c-.32.52-.63,1-.94,1.56-.49.82-1,1.62-1.39,2.44h-6.63v-4Z"/><path d="M355.63,156.82v4H275.94l-.81-1.43c-.5-.87-1-1.72-1.55-2.57Z"/><path d="M62.63,168.82h51.71l-.27.62c-.47,1.12-.91,2.24-1.32,3.38H62.63Z"/><path d="M355.63,168.82v4H281.46c-.5-1.35-1-2.69-1.61-4Z"/><path d="M110.17,180.82c-.24.89-.47,1.79-.68,2.69-.1.43-.2.87-.29,1.31H62.63v-4Z"/><path d="M110.23,180.82h0l-.69,2.5C109.79,182.48,110,181.65,110.23,180.82Z"/><path d="M355.63,180.82v4H285c-.29-1.35-.62-2.68-1-4Z"/><path d="M62.63,192.82H107.8c-.18,1.32-.33,2.66-.43,4H62.63Z"/><polygon points="66.63 192.82 66.63 245.39 62.63 244.86 62.63 192.82 66.63 192.82"/><path d="M355.63,192.82v4H286.82c-.11-1.34-.25-2.67-.42-4Z"/><rect x="309.63" y="218.82" width="69" height="4"/><rect x="319.63" y="236.82" width="67" height="4"/><rect x="309.63" y="244.82" width="93" height="4"/><rect x="426.13" y="224.32" width="21" height="4" transform="translate(662.94 -210.31) rotate(90)"/><rect x="619.63" y="225.82" width="18" height="4" transform="translate(856.44 -400.81) rotate(90)"/><rect x="659.13" y="155.32" width="9" height="4" transform="translate(820.94 -506.31) rotate(90)"/><rect x="711.63" y="154.82" width="8" height="4" transform="translate(872.44 -558.81) rotate(90)"/><rect x="660.63" y="135.82" width="6" height="4" transform="translate(801.44 -525.81) rotate(90)"/><rect x="655.63" y="132.82" width="8" height="4" transform="translate(794.44 -524.81) rotate(90)"/><rect x="671.13" y="155.32" width="9" height="4" transform="translate(832.94 -518.31) rotate(90)"/><rect x="683.13" y="155.32" width="9" height="4" transform="translate(844.94 -530.31) rotate(90)"/><rect x="695.13" y="155.32" width="9" height="4" transform="translate(856.94 -542.31) rotate(90)"/><rect x="710.63" y="133.82" width="10" height="4" transform="translate(851.44 -579.81) rotate(90)"/><rect x="710.63" y="168.82" width="28" height="4" transform="translate(895.44 -553.81) rotate(90)"/><rect x="661.13" y="240.32" width="5" height="4" transform="translate(905.94 -421.31) rotate(90)"/><rect x="671.63" y="241.82" width="8" height="4" transform="translate(919.44 -431.81) rotate(90)"/><rect x="683.13" y="242.32" width="9" height="4" transform="translate(931.94 -443.31) rotate(90)"/><rect x="697.63" y="244.82" width="35" height="4" transform="translate(1430.26 493.63) rotate(180)"/><rect x="695.13" y="242.32" width="9" height="4" transform="translate(943.94 -455.31) rotate(90)"/><rect x="727.13" y="207.32" width="9" height="4" transform="translate(940.94 -522.31) rotate(90)"/><rect x="705.63" y="168.82" width="52" height="4" transform="translate(902.44 -560.81) rotate(90)"/><rect x="477.63" y="144.82" width="256" height="4" transform="translate(1211.26 293.63) rotate(180)"/><rect x="725.63" y="227.82" width="12" height="4" transform="translate(961.44 -501.81) rotate(90)"/><rect x="720.63" y="216.82" width="20" height="4" transform="translate(1461.26 437.63) rotate(180)"/><rect x="720.63" y="192.82" width="13" height="4" transform="translate(1454.26 389.63) rotate(180)"/><rect x="720.63" y="180.82" width="2" height="4" transform="translate(1443.26 365.63) rotate(180)"/><rect x="714.63" y="156.82" width="8" height="4" transform="translate(1437.26 317.63) rotate(180)"/><rect x="720.63" y="204.82" width="9" height="4" transform="translate(1450.26 413.63) rotate(180)"/><rect x="687.13" y="247.32" width="9" height="4" transform="translate(940.94 -442.31) rotate(90)"/><rect x="730.13" y="247.32" width="9" height="4" transform="translate(983.94 -485.31) rotate(90)"/><rect x="729.63" y="235.82" width="10" height="4" transform="translate(1469.26 475.63) rotate(180)"/><rect x="626.63" y="216.82" width="16" height="4" transform="translate(1269.26 437.63) rotate(180)"/><rect x="626.63" y="180.82" width="16" height="4" transform="translate(1269.26 365.63) rotate(180)"/><rect x="625.63" y="204.82" width="17" height="4" transform="translate(1268.26 413.63) rotate(180)"/><rect x="631.63" y="192.82" width="11" height="4" transform="translate(1274.26 389.63) rotate(180)"/><rect x="434.63" y="232.82" width="196" height="4"/><rect x="422.63" y="240.82" width="242" height="4"/><rect x="414.63" y="247.82" width="263" height="4"/><rect x="411.63" y="226.82" width="26" height="4" transform="translate(653.44 -195.81) rotate(90)"/><rect x="394.63" y="231.82" width="36" height="4" transform="translate(646.44 -178.81) rotate(90)"/><rect x="386.13" y="228.32" width="29" height="4" transform="translate(170.31 630.94) rotate(-90)"/><rect x="376.13" y="226.32" width="25" height="4" transform="translate(616.94 -160.31) rotate(90)"/><rect x="299.13" y="233.32" width="25" height="4" transform="translate(546.94 -76.31) rotate(90)"/><rect x="472.63" y="122.82" width="20" height="4" transform="translate(357.81 607.44) rotate(-90)"/><rect x="481.13" y="142.32" width="33" height="4" transform="translate(353.31 641.94) rotate(-90)"/><rect x="519.13" y="108.32" width="13" height="4" transform="translate(415.31 635.94) rotate(-90)"/><polygon points="615.63 52.06 615.63 95.82 611.63 95.82 611.63 50.26 615.63 52.06"/><rect x="593.13" y="143.32" width="79" height="4" transform="translate(487.31 777.94) rotate(-90)"/><rect x="652.13" y="111.32" width="15" height="4" transform="translate(546.31 772.94) rotate(-90)"/><rect x="666.13" y="111.32" width="15" height="4" transform="translate(560.31 786.94) rotate(-90)"/><rect x="680.13" y="111.32" width="15" height="4" transform="translate(574.31 800.94) rotate(-90)"/><rect x="694.13" y="111.32" width="15" height="4" transform="translate(588.31 814.94) rotate(-90)"/><rect x="708.13" y="111.32" width="15" height="4" transform="translate(602.31 828.94) rotate(-90)"/><rect x="430.63" y="106.82" width="12" height="4" transform="translate(327.81 545.44) rotate(-90)"/><rect x="414.63" y="102.82" width="20" height="4" transform="translate(319.81 529.44) rotate(-90)"/><rect x="396.13" y="96.32" width="33" height="4" transform="translate(314.31 510.94) rotate(-90)"/><rect x="398.63" y="78.32" width="4" height="36.5"/><path d="M412.63,12.82V21c-1.33.06-2.67.14-4,.22V12.82Z"/><rect x="372.13" y="96.32" width="33" height="4" transform="translate(290.31 486.94) rotate(-90)"/><rect x="364.63" y="100.82" width="24" height="4" transform="translate(273.81 479.44) rotate(-90)"/><polygon points="226.63 31.73 226.63 93.82 222.63 93.82 222.63 32.72 226.63 31.73"/><path d="M369.63,13.82V24.91l-4,.49V13.82Z"/><path d="M383.63.82v12c-1.34.18-2.67.35-4,.54V.82Z"/><path d="M365.63,66.17a54.77,54.77,0,0,0,4,5.85v12.8h-4Z"/><use transform="translate(379.63 130.82) scale(0.12)" xlink:href="#image"/><text class="cls-14" transform="translate(656.69 201.06)">ATmega</text><text class="cls-15" transform="translate(657.32 215.22)"><tspan class="cls-16">A</tspan><tspan class="cls-17" x="5.29" y="0">T</tspan><tspan x="9.77" y="0">mega328P</tspan></text><use transform="translate(654.63 174.82) scale(0.1)" xlink:href="#image"/><rect class="cls-7" x="725.63" y="214.82" width="12" height="8" transform="translate(950.44 -512.81) rotate(90)"/><rect class="cls-18" x="727.63" y="222.82" width="8" height="2"/><rect class="cls-18" x="727.63" y="212.82" width="8" height="2"/><text class="cls-19" transform="translate(732.65 221.7) rotate(-90) scale(0.98 1)">420</text><rect class="cls-7" x="370.63" y="225.82" width="12" height="8" transform="translate(606.44 -146.81) rotate(90)"/><rect class="cls-18" x="372.63" y="233.82" width="8" height="2"/><rect class="cls-18" x="372.63" y="223.82" width="8" height="2"/><text class="cls-19" transform="translate(377.65 233.7) rotate(-90) scale(0.98 1)">A220</text><rect class="cls-7" x="315.63" y="225.82" width="12" height="8" transform="translate(551.44 -91.81) rotate(90)"/><rect class="cls-18" x="317.63" y="233.82" width="8" height="2"/><rect class="cls-18" x="317.63" y="223.82" width="8" height="2"/><text class="cls-19" transform="translate(322.65 233.7) rotate(-90) scale(0.98 1)">A220</text><rect class="cls-7" x="491.63" y="142.82" width="12" height="8" transform="translate(644.44 -350.81) rotate(90)"/><rect class="cls-18" x="493.63" y="150.82" width="8" height="2"/><rect class="cls-18" x="493.63" y="140.82" width="8" height="2"/><text class="cls-19" transform="translate(498.65 149.7) rotate(-90) scale(0.98 1)">420</text><rect class="cls-7" x="491.63" y="110.82" width="12" height="8" transform="translate(995.26 229.63) rotate(180)"/><rect class="cls-18" x="488.63" y="113.82" width="8" height="2" transform="translate(607.44 -377.81) rotate(90)"/><rect class="cls-18" x="498.63" y="113.82" width="8" height="2" transform="translate(617.44 -387.81) rotate(90)"/><text class="cls-19" transform="translate(494.75 115.83) scale(0.98 1)">331</text><rect class="cls-7" x="520.63" y="190.82" width="12" height="8" transform="translate(1053.68 388.49) rotate(179.88)"/><rect class="cls-18" x="517.63" y="193.83" width="8" height="2" transform="translate(715.33 -327.22) rotate(89.88)"/><rect class="cls-18" x="527.63" y="193.8" width="8" height="2" transform="translate(725.28 -337.24) rotate(89.88)"/><text class="cls-19" transform="translate(523.73 195.86) rotate(-0.12) scale(0.98 1)">501</text><rect class="cls-7" x="505.63" y="166.82" width="12" height="8" transform="translate(1023.62 340.53) rotate(179.88)"/><rect class="cls-18" x="502.63" y="169.83" width="8" height="2" transform="translate(676.36 -336.17) rotate(89.88)"/><rect class="cls-18" x="512.63" y="169.8" width="8" height="2" transform="translate(686.32 -346.19) rotate(89.88)"/><text class="cls-19" transform="translate(508.73 171.86) rotate(-0.12) scale(0.98 1)">202</text><rect class="cls-7" x="535.64" y="171.84" width="11.97" height="7.96" transform="translate(715.44 -366.46) rotate(89.79)"/><rect class="cls-18" x="539.63" y="179.84" width="4" height="1.97" transform="translate(-0.66 1.98) rotate(-0.21)"/><rect class="cls-18" x="539.63" y="169.84" width="4" height="1.97" transform="translate(-0.62 1.98) rotate(-0.21)"/><rect class="cls-7" x="657.63" y="142.82" width="12" height="8" transform="translate(810.44 -516.81) rotate(90)"/><rect class="cls-18" x="660.63" y="150.82" width="6" height="1"/><rect class="cls-18" x="660.63" y="141.82" width="6" height="1"/><text class="cls-19" transform="translate(664.65 149.7) rotate(-90) scale(0.98 1)">331</text><rect class="cls-7" x="626.63" y="141.82" width="12" height="8" transform="translate(778.44 -486.81) rotate(90)"/><rect class="cls-18" x="628.63" y="149.82" width="8" height="2"/><rect class="cls-18" x="628.63" y="139.82" width="8" height="2"/><text class="cls-20" transform="translate(630.32 148.38) scale(0.98 1)">0</text><rect class="cls-7" x="669.63" y="142.82" width="12" height="8" transform="translate(822.44 -528.81) rotate(90)"/><rect class="cls-18" x="672.63" y="150.82" width="6" height="1"/><rect class="cls-18" x="672.63" y="141.82" width="6" height="1"/><text class="cls-19" transform="translate(676.65 149.7) rotate(-90) scale(0.98 1)">331</text><rect class="cls-7" x="681.63" y="142.82" width="12" height="8" transform="translate(834.44 -540.81) rotate(90)"/><rect class="cls-18" x="683.63" y="150.82" width="8" height="2"/><rect class="cls-18" x="683.63" y="140.82" width="8" height="2"/><rect class="cls-18" x="671.63" y="140.82" width="8" height="2"/><rect class="cls-18" x="659.63" y="140.82" width="8" height="2"/><rect class="cls-18" x="659.63" y="150.82" width="8" height="2"/><rect class="cls-18" x="671.63" y="150.82" width="8" height="2"/><rect class="cls-18" x="711.63" y="140.82" width="8" height="2"/><rect class="cls-18" x="711.63" y="150.82" width="8" height="2"/><rect class="cls-18" x="684.63" y="141.82" width="6" height="1"/><text class="cls-19" transform="translate(688.65 149.7) rotate(-90) scale(0.98 1)">331</text><rect class="cls-7" x="693.63" y="142.82" width="12" height="8" transform="translate(846.44 -552.81) rotate(90)"/><rect class="cls-18" x="695.63" y="150.82" width="8" height="2"/><rect class="cls-18" x="711.63" y="140.82" width="8" height="2"/><rect class="cls-18" x="711.63" y="150.82" width="8" height="2"/><rect class="cls-18" x="695.63" y="140.82" width="8" height="2"/><rect class="cls-7" x="709.63" y="142.82" width="12" height="8" transform="translate(862.44 -568.81) rotate(90)"/><rect class="cls-18" x="711.63" y="150.82" width="8" height="2"/><rect class="cls-18" x="711.63" y="140.82" width="8" height="2"/><text class="cls-19" transform="translate(700.65 149.7) rotate(-90) scale(0.98 1)">331</text><text class="cls-19" transform="translate(716.65 149.7) rotate(-90) scale(0.98 1)">331</text><circle class="cls-21" cx="659.63" cy="125.82" r="6"/><circle class="cls-22" cx="659.63" cy="125.82" r="4.91"/><circle class="cls-21" cx="568.13" cy="173.32" r="8.5"/><circle class="cls-23" cx="568.13" cy="173.32" r="6.95"/><circle cx="526.63" cy="218.82" r="4"/><circle cx="567.63" cy="214.82" r="4"/><circle cx="631.63" cy="194.82" r="4"/><circle cx="567.63" cy="153.82" r="4"/><circle cx="584.63" cy="127.82" r="4"/><circle cx="410.63" cy="9.82" r="4"/><circle cx="916.63" cy="131.82" r="4"/><circle cx="762.63" cy="103.82" r="4"/><circle cx="29.63" cy="141.82" r="4"/><rect x="672.63" y="135.82" width="6" height="4" transform="translate(813.44 -537.81) rotate(90)"/><rect x="669.63" y="132.82" width="8" height="4" transform="translate(808.44 -538.81) rotate(90)"/><circle class="cls-21" cx="673.63" cy="125.82" r="6"/><circle class="cls-22" cx="673.63" cy="125.82" r="4.91"/><rect x="682.63" y="133.82" width="10" height="4" transform="translate(823.44 -551.81) rotate(90)"/><circle class="cls-21" cx="687.63" cy="125.82" r="6"/><circle class="cls-22" cx="687.63" cy="125.82" r="4.91"/><circle class="cls-21" cx="513.63" cy="114.82" r="6"/><circle class="cls-22" cx="513.63" cy="114.82" r="4.91"/><rect class="cls-7" x="23.63" y="111.82" width="12" height="8" transform="translate(59.26 231.63) rotate(180)"/><rect class="cls-18" x="20.63" y="114.82" width="8" height="2" transform="translate(140.44 91.19) rotate(90)"/><rect class="cls-18" x="30.63" y="114.82" width="8" height="2" transform="translate(150.44 81.19) rotate(90)"/><text class="cls-19" transform="translate(26.75 116.83) scale(0.98 1)">331</text><circle class="cls-21" cx="16.63" cy="95.82" r="6"/><circle class="cls-24" cx="16.63" cy="95.82" r="4.91"/><rect class="cls-7" x="948.63" y="143.82" width="12" height="8" transform="translate(1102.44 -806.81) rotate(90)"/><rect class="cls-18" x="950.63" y="151.82" width="8" height="2"/><rect class="cls-18" x="950.63" y="141.82" width="8" height="2"/><text class="cls-19" transform="translate(955.65 150.7) rotate(-90) scale(0.98 1)">331</text><circle class="cls-21" cx="982.63" cy="145.82" r="6"/><circle class="cls-25" cx="982.63" cy="145.82" r="4.91"/><circle class="cls-21" cx="964.63" cy="136.82" r="6"/><circle class="cls-25" cx="964.63" cy="136.82" r="4.91"/><circle class="cls-21" cx="946.63" cy="127.82" r="6"/><circle class="cls-25" cx="946.63" cy="127.82" r="4.91"/><rect x="696.63" y="135.82" width="6" height="4" transform="translate(837.44 -561.81) rotate(90)"/><rect x="697.63" y="132.82" width="8" height="4" transform="translate(836.44 -566.81) rotate(90)"/><circle class="cls-21" cx="701.63" cy="125.82" r="6"/><circle class="cls-22" cx="701.63" cy="125.82" r="4.91"/><circle class="cls-21" cx="715.63" cy="125.82" r="6"/><circle class="cls-22" cx="715.63" cy="125.82" r="4.91"/><rect class="cls-21" x="584.63" y="182.82" width="8" height="4"/><rect class="cls-21" x="620.63" y="182.82" width="6" height="4"/><rect class="cls-21" x="584.63" y="204.82" width="7" height="4"/><rect class="cls-21" x="619.63" y="204.82" width="7" height="4"/><rect class="cls-7" x="590.63" y="180.82" width="30" height="30"/><circle class="cls-21" cx="605.63" cy="195.82" r="8"/><circle class="cls-18" cx="595.63" cy="185.82" r="4"/><circle class="cls-18" cx="595.63" cy="205.82" r="4"/><circle class="cls-18" cx="615.63" cy="205.82" r="4"/><circle class="cls-18" cx="615.63" cy="185.82" r="4"/><path class="cls-21" d="M566.63,200.84l-3-1v-10l3-1a4.07,4.07,0,0,1,.5,0,6,6,0,0,1,0,12A4.07,4.07,0,0,1,566.63,200.84Z"/><text class="cls-26" transform="translate(566.38 189.92) rotate(90)">BC547B</text><text class="cls-19" transform="translate(542.65 179.39) rotate(-90) scale(0.98 1)">SS12</text><path d="M367.63,220.82a6.64,6.64,0,0,1-1,3.59,6.12,6.12,0,0,1-5.17,2.92h-25.8a5.78,5.78,0,0,1-3.1-.88,6.68,6.68,0,0,1,0-11.27,5.78,5.78,0,0,1,3.1-.88h25.8a6.12,6.12,0,0,1,5.17,2.92A6.65,6.65,0,0,1,367.63,220.82Z"/><path class="cls-18" d="M367,220.82a5.9,5.9,0,0,1-1,3.31,6,6,0,0,1-5,2.69H336a5.86,5.86,0,0,1-3-.81,6,6,0,0,1,0-10.38,5.86,5.86,0,0,1,3-.81h25a6,6,0,0,1,5,2.69A5.9,5.9,0,0,1,367,220.82Z"/><text class="cls-27" transform="translate(336.79 222.63)">16.000 N</text><rect x="88.63" y="144.82" width="25" height="4"/><rect x="62.13" y="144.32" width="29" height="4" transform="translate(222.94 69.69) rotate(90)"/><rect x="53.13" y="139.32" width="23" height="4" transform="translate(205.94 76.69) rotate(90)"/><rect x="80.63" y="138.82" width="16" height="4" transform="translate(229.44 52.19) rotate(90)"/><rect x="114.13" y="124.32" width="21" height="4" transform="translate(250.94 1.69) rotate(90)"/><path d="M198.63,79.82v34.36l-1.69,0q-1.16,0-2.31,0V79.82Z"/><polygon points="177.63 116.25 177.63 105.82 177.63 101.82 173.63 101.82 173.63 105.82 173.63 117.23 177.63 116.25"/><polygon points="154.63 49.53 154.63 75.82 150.63 75.82 150.63 50.52 154.63 49.53"/><rect x="75.63" y="156.82" width="38" height="4"/><polygon points="67.63 180.82 67.63 184.82 4.19 184.82 4.88 180.82 67.63 180.82"/><rect x="32.13" y="165.82" width="10" height="4" transform="translate(204.94 130.69) rotate(90)"/><rect x="38.63" y="168.82" width="34" height="4"/><polygon points="38.63 162.82 38.63 166.82 7.32 166.82 8.02 162.82 38.63 162.82"/><path d="M64.63,148.82v4H9.56a1,1,0,0,0-.62-.53l-7-2.08A1,1,0,0,1,1.27,149l0-.14Z"/><rect x="105.63" y="113.82" width="21" height="4"/><rect class="cls-10" x="44.63" y="100.82" width="15" height="6"/><rect class="cls-10" x="44.63" y="112.82" width="15" height="6"/><rect class="cls-10" x="92.63" y="100.82" width="15" height="6"/><rect class="cls-10" x="92.63" y="112.82" width="15" height="6"/><rect class="cls-10" x="81.13" y="90.32" width="15" height="6" transform="translate(181.94 4.69) rotate(90)"/><rect class="cls-10" x="69.13" y="90.32" width="15" height="6" transform="translate(169.94 16.69) rotate(90)"/><rect class="cls-10" x="57.13" y="90.32" width="15" height="6" transform="translate(157.94 28.69) rotate(90)"/><rect class="cls-10" x="81.13" y="124.32" width="15" height="6" transform="translate(215.94 38.69) rotate(90)"/><rect class="cls-10" x="69.13" y="124.32" width="15" height="6" transform="translate(203.94 50.69) rotate(90)"/><rect class="cls-10" x="57.13" y="124.32" width="15" height="6" transform="translate(191.94 62.69) rotate(90)"/><rect class="cls-11" x="51.63" y="92.82" width="49" height="35" rx="8.17" ry="8.17"/><text class="cls-28" transform="translate(62.87 113.62)">ATmega</text><text class="cls-29" transform="translate(63.25 122.15)">A<tspan class="cls-30" x="3.19" y="0">T</tspan><tspan class="cls-31" x="5.88" y="0">mega32u4</tspan></text><use transform="translate(61.63 97.82) scale(0.06)" xlink:href="#image"/><rect class="cls-10" x="918.63" y="186.82" width="15" height="6"/><rect class="cls-10" x="918.63" y="198.82" width="15" height="6"/><rect class="cls-10" x="966.63" y="186.82" width="15" height="6"/><rect class="cls-10" x="966.63" y="198.82" width="15" height="6"/><rect class="cls-10" x="955.13" y="176.32" width="15" height="6" transform="translate(1141.94 -783.31) rotate(90)"/><rect class="cls-10" x="943.13" y="176.32" width="15" height="6" transform="translate(1129.94 -771.31) rotate(90)"/><rect class="cls-10" x="931.13" y="176.32" width="15" height="6" transform="translate(1117.94 -759.31) rotate(90)"/><rect class="cls-10" x="955.13" y="210.32" width="15" height="6" transform="translate(1175.94 -749.31) rotate(90)"/><rect class="cls-10" x="943.13" y="210.32" width="15" height="6" transform="translate(1163.94 -737.31) rotate(90)"/><rect class="cls-10" x="931.13" y="210.32" width="15" height="6" transform="translate(1151.94 -725.31) rotate(90)"/><rect class="cls-11" x="925.63" y="178.82" width="49" height="35" rx="8.17" ry="8.17"/><text class="cls-28" transform="translate(936.87 199.62)">ATmega</text><text class="cls-29" transform="translate(937.25 208.15)">A<tspan class="cls-30" x="3.19" y="0">T</tspan><tspan class="cls-31" x="5.88" y="0">mega32u4</tspan></text><use transform="translate(935.63 183.82) scale(0.06)" xlink:href="#image"/></g></g></svg>